<?xml version="1.0" encoding="UTF-8"?>
<svg id="_Слой_1" data-name="Слой_1" xmlns="http://www.w3.org/2000/svg" version="1.1" viewBox="0 0 283.46 283.46">
  <!-- Generator: Adobe Illustrator 29.7.1, SVG Export Plug-In . SVG Version: 2.1.1 Build 8)  -->
  <defs>
    <style>
      .st0 {
        fill: none;
      }

      .st1 {
        fill: #1db4b3;
      }

      .st2 {
        fill: #081b26;
      }
    </style>
  </defs>
  <path class="st2" d="M165.38,84.75c-1.16-3.69-2.59-7.22-4.29-10.6-11.02-22.01-32.92-36.99-58.11-36.99H18.2v209.15l43.86-37.12,5.55-4.7v-120.05h31.41c11.95,0,21.66,11.12,21.66,24.83s-9.71,24.81-21.66,24.81h-21.66v41.97h25.62c3.99,0,7.9-.36,11.7-1.1,26.61-5.05,47.65-27,52.8-54.98.8-4.32,1.22-8.79,1.22-13.36v-.62c-.06-7.42-1.22-14.56-3.32-21.24ZM42.22,119.81c-.29,0-.58,0-.87-.02-1.02-.06-2.05-.23-3.01-.48v-.02c-6.35-1.7-11.03-7.51-11.03-14.38s5.02-13.09,11.74-14.54c1.02-.23,2.09-.35,3.17-.35,1.35,0,2.66.17,3.92.52,6.31,1.72,10.96,7.49,10.96,14.37,0,8.22-6.66,14.9-14.88,14.9ZM143.1,89.79c8.22,0,14.88,6.66,14.88,14.89,0,1.37-.19,2.7-.54,3.95-1.71,6.3-7.49,10.93-14.34,10.93-2.3,0-4.48-.52-6.43-1.45-5-2.39-8.48-7.51-8.48-13.43,0-8.23,6.68-14.89,14.91-14.89Z"/>
  <path class="st1" d="M157.98,104.68c0,1.37-.19,2.7-.54,3.95-1.71,6.3-7.49,10.93-14.34,10.93-2.3,0-4.48-.52-6.43-1.45-5-2.39-8.48-7.51-8.48-13.43,0-8.23,6.68-14.89,14.91-14.89s14.88,6.66,14.88,14.89Z"/>
  <path class="st2" d="M265.32,37.16l-46.73,39.55v98.21c0,14.73-15.93,26.66-35.54,26.66-.56,0-1.11,0-1.66-.03-18.87-.65-33.89-12.32-33.89-26.63,0-1.26.12-2.51.35-3.73-11.22,9.4-25.39,15.02-40.82,15.02-1.06,0-2.1-.02-3.14-.08,3.57,20.86,17.58,38.75,37.23,49.5,12.51,6.86,27.32,10.82,43.18,10.82,31.38,0,58.6-15.49,72.17-38.15,5.87-9.79,9.17-20.93,9.17-32.75V37.16h-.32ZM193.98,233.74c-1.58,2.1-3.69,3.78-6.14,4.82-.44.19-.9.35-1.37.5-1.4.43-2.89.67-4.43.67-4.11,0-7.83-1.67-10.52-4.37-.21-.21-.41-.43-.61-.65-.2-.22-.39-.45-.58-.69-.18-.23-.36-.47-.53-.72-.17-.24-.34-.5-.49-.75-.13-.21-.25-.42-.36-.63-.17-.32-.33-.64-.48-.97-.15-.33-.29-.66-.41-1-.22-.6-.41-1.22-.54-1.85-.05-.21-.09-.43-.13-.64-.04-.21-.07-.43-.1-.65-.03-.22-.05-.43-.07-.65-.02-.22-.04-.45-.05-.67-.01-.22-.01-.45-.01-.67,0-.32.01-.64.03-.96.02-.31.05-.63.09-.94.12-.93.32-1.83.6-2.7.1-.29.2-.58.31-.86s.23-.56.36-.83c.12-.27.26-.54.4-.8.11-.21.23-.43.36-.64.16-.25.32-.5.49-.75.17-.24.35-.48.53-.71.74-.93,1.59-1.78,2.52-2.52.23-.18.47-.36.71-.53.25-.17.5-.33.75-.49.21-.13.43-.25.64-.36.26-.14.53-.28.8-.4.27-.13.55-.25.83-.36.28-.11.57-.21.86-.31.87-.28,1.77-.48,2.7-.6.31-.04.63-.07.94-.09.32-.02.64-.03.96-.03.22,0,.45,0,.67.01.22,0,.45.03.67.05.22.02.43.04.65.07.22.03.44.06.65.1s.43.08.64.13c.63.13,1.25.32,1.85.54.34.12.67.26,1,.41.33.15.65.31.97.48.21.12.42.23.62.36.08.04.16.09.24.15.16.1.32.2.48.31.39.26.76.55,1.12.86.16.12.31.25.45.39.18.16.35.32.52.49.17.16.34.34.49.52.16.17.31.34.44.51.36.41.68.85.97,1.3.09.11.16.23.23.34.08.13.15.25.22.38.17.28.33.57.47.86.04.08.08.16.12.24.07.15.14.31.2.46.12.27.23.53.33.8.08.23.16.45.23.69.08.23.14.46.2.7.07.24.12.48.17.72.2.97.31,1.98.31,3.01,0,3.35-1.1,6.44-2.97,8.92Z"/>
  <path class="st0" d="M196.94,224.82c0,8.22-6.68,14.91-14.91,14.91s-14.89-6.68-14.89-14.91,6.66-14.89,14.89-14.89,14.91,6.66,14.91,14.89Z"/>
  <path class="st1" d="M57.1,104.91c0,8.22-6.66,14.9-14.88,14.9-.29,0-.58,0-.87-.02-1.02-.06-2.05-.23-3.01-.48v-.02c-6.35-1.7-11.03-7.51-11.03-14.38s5.02-13.09,11.74-14.54c1.02-.23,2.09-.35,3.17-.35,1.35,0,2.66.17,3.92.52,6.31,1.72,10.96,7.49,10.96,14.37Z"/>
  <path class="st1" d="M196.94,224.82c0,8.22-6.68,14.91-14.91,14.91s-14.89-6.68-14.89-14.91,6.66-14.89,14.89-14.89,14.91,6.66,14.91,14.89Z"/>
  <path class="st0" d="M57.1,104.91c0,8.22-6.66,14.9-14.88,14.9-.29,0-.58,0-.87-.02-1.02-.06-2.05-.23-3.01-.48v-.02c-6.35-1.7-11.03-7.51-11.03-14.38s5.02-13.09,11.74-14.54c1.02-.23,2.09-.35,3.17-.35,1.35,0,2.66.17,3.92.52,6.31,1.72,10.96,7.49,10.96,14.37Z"/>
  <path class="st0" d="M157.98,104.68c0,1.37-.19,2.7-.54,3.95-1.71,6.3-7.49,10.93-14.34,10.93-2.3,0-4.48-.52-6.43-1.45-5-2.39-8.48-7.51-8.48-13.43,0-8.23,6.68-14.89,14.91-14.89s14.88,6.66,14.88,14.89Z"/>
</svg>