<?xml version="1.0" encoding="UTF-8"?>
<svg xmlns="http://www.w3.org/2000/svg" viewBox="0 0 200 300">
  <defs>
    <style>
      .st0 { fill: none; }
      .st1 { fill: #1db4b3; }
      .st2 { fill: #081b26; }
      .font-title { font-family: 'Montserrat', sans-serif; font-weight: 700; font-size: 32px; }
    </style>
  </defs>
  
  <!-- Логотип PJ (масштабовано для вертикалі) -->
  <g transform="translate(30, 30) scale(0.35)">
    <path class="st2" d="M165.38,84.75c-1.16-3.69-2.59-7.22-4.29-10.6-11.02-22.01-32.92-36.99-58.11-36.99H18.2v209.15l43.86-37.12,5.55-4.7v-120.05h31.41c11.95,0,21.66,11.12,21.66,24.83s-9.71,24.81-21.66,24.81h-21.66v41.97h25.62c3.99,0,7.9-.36,11.7-1.1,26.61-5.05,47.65-27,52.8-54.98.8-4.32,1.22-8.79,1.22-13.36v-.62c-.06-7.42-1.22-14.56-3.32-21.24Z"/>
    <path class="st1" d="M57.1,104.91c0,8.22-6.66,14.9-14.88,14.9-.29,0-.58,0-.87-.02-1.02-.06-2.05-.23-3.01-.48v-.02c-6.35-1.7-11.03-7.51-11.03-14.38s5.02-13.09,11.74-14.54c1.02-.23,2.09-.35,3.17-.35,1.35,0,2.66.17,3.92.52,6.31,1.72,10.96,7.49,10.96,14.37Z"/>
    <path class="st1" d="M157.98,104.68c0,1.37-.19,2.7-.54,3.95-1.71,6.3-7.49,10.93-14.34,10.93-2.3,0-4.48-.52-6.43-1.45-5-2.39-8.48-7.51-8.48-13.43,0-8.23,6.68-14.89,14.91-14.89s14.88,6.66,14.88,14.89Z"/>
    <path class="st2" d="M265.32,37.16l-46.73,39.55v98.21c0,14.73-15.93,26.66-35.54,26.66-.56,0-1.11,0-1.66-.03-18.87-.65-33.89-12.32-33.89-26.63,0-1.26.12-2.51.35-3.73-11.22,9.4-25.39,15.02-40.82,15.02-1.06,0-2.1-.02-3.14-.08,3.57,20.86,17.58,38.75,37.23,49.5,12.51,6.86,27.32,10.82,43.18,10.82,31.38,0,58.6-15.49,72.17-38.15,5.87-9.79,9.17-20.93,9.17-32.75V37.16h-.32Z"/>
    <path class="st1" d="M196.94,224.82c0,8.22-6.68,14.91-14.91,14.91s-14.89-6.68-14.89-14.91,6.66-14.89,14.89-14.89,14.91,6.66,14.91,14.89Z"/>
  </g>
  
  <!-- Текст PRO JET вертикально -->
  <text x="100" y="210" text-anchor="middle" class="font-title" fill="#081b26">PRO JET</text>
  <line x1="50" y1="230" x2="150" y2="230" stroke="#1db4b3" stroke-width="2"/>
  <text x="100" y="260" text-anchor="middle" style="font-family: 'Inter', sans-serif; font-size: 14px; fill: #2d3e50;">Лазерне гравіювання</text>
</svg>
